<?xml version="1.0" encoding="utf-8"?>
<!-- Generator: Adobe Illustrator 26.0.3, SVG Export Plug-In . SVG Version: 6.00 Build 0)  -->
<svg version="1.0" id="katman_1" xmlns="http://www.w3.org/2000/svg" xmlns:xlink="http://www.w3.org/1999/xlink" x="0px" y="0px"
	 viewBox="0 0 600 450" style="enable-background:new 0 0 600 450;" xml:space="preserve" width="60px" height="48px">
<style type="text/css">
	.st0{fill:url(#SVGID_1_);}
	.st1{fill:#E50756;}
	.st2{fill:#1E1536;}
</style>
<linearGradient id="SVGID_1_" gradientUnits="userSpaceOnUse" x1="256.3015" y1="126.3546" x2="224.2311" y2="291.3253" gradientTransform="matrix(1 0 0 -1 -120.9449 379.3622)">
	<stop  offset="0.14" style="stop-color:#E50756"/>
	<stop  offset="0.75" style="stop-color:#1E1536"/>
</linearGradient>
<path class="st0" d="M149,168.4c-23.1,10.6-38.8,30.8-38.8,54c0,29.3,27,53,60.3,53c15.3,0,26-3.5,38.6-11.1
	c1.3-0.8,2.8-1.4,3.8-0.2c0.6,0.7,0.3,1.6-0.1,2.4c-13.7,25.2-41.6,42.7-72.9,42.7c-46.3,0-83.8-37.5-83.8-83.8
	c0-25.4,11.5-49.5,31.4-65.4C101.7,148.5,137.7,146.9,149,168.4z"/>
<path class="st1" d="M211.8,200.8c0,27.8-26.6,50.4-59.4,50.4c-4.8,0-17.7-0.7-26.9-5c-2.6-1.2-2.4-2.8-0.6-3.5
	c4.2-1.7,37.2-8.1,37.2-41.9l0,0c0-33.9-35-58.6-74.7-40.8l0,0c14.9-12,33.4-18.5,52.5-18.5C178.8,141.6,211.8,168.1,211.8,200.8z"
	/>
<path class="st2" d="M271.5,185.6c-18.1,0-27.7,10.9-27.7,24.9v0.4c0,14.1,7.7,23.4,26.9,23.4c13.9,0,23.3-4.5,27.2-15h-13.4
	c-2,3.4-5.8,5.4-12.9,5.4c-9.8,0-14.7-3.6-16-10.1h43v-4.9C298.6,195.7,289.2,185.6,271.5,185.6z M255.7,205.4
	c1.6-6.5,6.9-10.2,16-10.2c8.9,0,13.4,3.3,14.6,10.2H255.7z"/>
<path class="st2" d="M352.8,174.6h-10.4c0,2.5-0.1,5.1-0.5,7.6c-0.7,3.9-1.7,4.6-5.1,5c-2.2,0.2-4.6,0.2-6.9,0.2h-8.1v-1.9
	c0-7,1.4-8.2,7.4-8.2h4v-9.9h-5.4c-13.3,0-17.8,4.5-17.8,17.7v2.4h-10.8v10.4h10.8V233h11.7l0.1-35.3h19.3V212
	c0,15.6,4.2,20.9,19.4,20.9h8.7V222h-5.5c-9.4,0-10.9-1.4-10.9-12v-12.4h16.5v-10.4h-16.5L352.8,174.6z"/>
<path class="st2" d="M405.8,185.7c-8.9,0-15.8,3.7-19.3,10l-1-8.5H375v61.9H387v-23.5c3.3,5.4,9.3,8.5,18.5,8.5
	c12.9,0,23.7-7.8,23.7-23.6v-0.4C429.1,194.3,420.2,185.7,405.8,185.7z M416.6,210.5c0,8.7-4.6,13.5-14.9,13.5
	c-9.8,0-14.9-4.9-14.9-13.6v-0.3c0-9,5.7-14.4,15-14.4c9.8,0,14.8,5,14.8,14.5L416.6,210.5z"/>
<path class="st2" d="M461.3,185.6c-16.4,0-27.5,9.2-27.5,24.5v0.5c0,14.9,8.3,23.7,27.2,23.7c18.5,0,27.8-9.2,27.8-23.7v-0.5
	C488.9,194.6,478,185.6,461.3,185.6z M476.3,210.5c0,8.7-4.6,13.5-15,13.5c-10.1,0-14.9-4.7-14.9-13.5v-0.4
	c0-9.4,5.4-14.4,15.1-14.4c9.9,0,14.9,5.1,14.9,14.4V210.5z"/>
<path class="st2" d="M520.7,205c-11.9-0.8-15.2-1.6-15.2-5c0-2.8,2.3-5.2,10.9-5.2c7.5,0,12.1,1.8,13.2,6.3h13.1
	c-2.5-10.3-10.6-15.6-26.1-15.6c-15.5,0-23,6.6-23,15.4c0,9.5,8,12.5,22.2,13.3c11.8,0.6,15.5,1.4,15.5,4.8c0,3.4-2.9,5.4-11.5,5.4
	c-8.9,0-12.9-1.9-14.1-6.8h-13.9c2,11,10.6,16.5,27.6,16.5c16.1,0,24.1-6.6,24.1-15.7C543.4,208.8,536.5,206,520.7,205z"/>
<path class="st1" d="M263.8,273.8c-0.6,3.3-2.9,5.3-7.2,5.3c-5.5,0-9.1-2.9-9.1-9.3V269c0-6.2,4.1-9.6,10.1-9.6c5.5,0,9,2.3,9.6,7
	h-4.5c-0.3-2.1-1.7-3.4-5-3.4c-3.9,0-6,1.9-6,6.1v0.6c0,4,1.9,5.9,5.8,5.9c3.7,0,5.5-1.4,5.8-3.6H257v-3.4h10.3v10.1h-3.2
	L263.8,273.8z"/>
<path class="st1" d="M270.5,271.3v-0.2c0-5.1,3.7-8.1,9.1-8.1c5.5,0,9.1,3,9.1,8.1v0.2c0,4.8-3.1,7.8-9.2,7.8
	C273.2,279.1,270.5,276.2,270.5,271.3z M284.6,271.2v-0.1c0-3.1-1.7-4.8-4.9-4.8c-3.3,0-5,1.7-5,4.8v0.1c0,2.9,1.6,4.5,5,4.5
	C283.1,275.7,284.6,274.1,284.6,271.2z"/>
<path class="st1" d="M291.1,271.3v-0.2c0-5.1,3.7-8.1,9.1-8.1c5.5,0,9.1,3,9.1,8.1v0.2c0,4.8-3.1,7.8-9.2,7.8
	C293.8,279.1,291.1,276.2,291.1,271.3z M305.1,271.2v-0.1c0-3.1-1.7-4.8-4.9-4.8c-3.2,0-5,1.7-5,4.8v0.1c0,2.9,1.6,4.5,5,4.5
	C303.6,275.7,305.1,274.1,305.1,271.2z"/>
<path class="st1" d="M325.6,275.7c-1,2.1-3.1,3.4-6.3,3.4c-4.5,0-7.8-2.5-7.8-7.9V271c0-5.1,3.1-8,7.9-8c2.8,0,4.8,1.1,6,3v-7.6h4
	v20.2H326L325.6,275.7z M325.6,271.2V271c0-3-1.8-4.7-5-4.7c-3.3,0-4.9,1.7-4.9,4.7v0.1c0,3.1,1.6,4.5,4.9,4.5
	C323.8,275.7,325.6,274.1,325.6,271.2L325.6,271.2z"/>
<path class="st1" d="M347.5,266.9v11.7h-3.9v-11.7h-3.6v-3.4h3.6v-0.7c0-4.4,1.5-5.8,5.9-5.8h2.6v3.3h-2.1c-2,0-2.5,0.4-2.5,2.8v0.6
	h4.6v3.4H347.5z"/>
<path class="st1" d="M353.7,271.3v-0.2c0-5.1,3.7-8.1,9.1-8.1c5.5,0,9.1,3,9.1,8.1v0.2c0,4.8-3.1,7.8-9.2,7.8
	C356.4,279.1,353.7,276.2,353.7,271.3z M367.8,271.2v-0.1c0-3.1-1.7-4.8-4.9-4.8s-5,1.7-5,4.8v0.1c0,2.9,1.6,4.5,5,4.5
	C366.3,275.7,367.8,274.1,367.8,271.2z"/>
<path class="st1" d="M375.1,278.7v-15.2h3.5l0.5,4c0.7-2.6,2.5-4.1,5.7-4.1h1.5v4h-1.8c-4.3,0-5.3,1.4-5.3,5.5v5.8H375.1z"/>
<path class="st1" d="M411.1,274.5h-9.2l-1.8,4.1h-4.3l8.5-18.8h4.3l8.6,18.8h-4.3L411.1,274.5z M406.4,263.8l-3.1,7.3h6.3
	L406.4,263.8z"/>
<path class="st1" d="M431.1,275.4c-0.9,2.3-2.9,3.7-6,3.7c-4.3,0-6.5-2.6-6.5-6.9v-8.7h4.1v7.8c0,2.8,1.1,4.4,4,4.4
	c2.7,0,4.1-1.9,4.1-4.8v-7.4h4.1v15.2h-3.5L431.1,275.4z"/>
<path class="st1" d="M437.7,273.6h4.6c0.4,1.6,1.7,2.2,4.7,2.2s3.8-0.7,3.8-1.8c0-1.1-1.2-1.4-5.1-1.6c-4.7-0.3-7.3-1.3-7.3-4.4
	c0-2.9,2.5-5.1,7.6-5.1s7.8,1.7,8.6,5.2h-4.3c-0.3-1.5-1.9-2.1-4.4-2.1c-2.8,0-3.6,0.8-3.6,1.7c0,1.1,1.1,1.4,5,1.7
	c5.2,0.3,7.5,1.3,7.5,4.5c0,3-2.7,5.2-8,5.2C441.2,279.1,438.3,277.3,437.7,273.6z"/>
<path class="st1" d="M469.1,278.7h-2.9c-5,0-6.4-1.8-6.4-6.9V267h-3.7v-3.3c0.8,0,1.6,0,2.3-0.1c1.1-0.1,1.5-0.5,1.7-1.7
	c0.1-0.8,0.2-1.7,0.2-2.5h3.4v4.2h5.4v3.5h-5.4v4.1c0,3.5,0.5,4,3.6,4h1.8L469.1,278.7z"/>
<path class="st1" d="M472.5,278.7v-15.2h3.5l0.5,4c0.7-2.6,2.5-4.1,5.7-4.1h1.6v4h-1.8c-4.3,0-5.3,1.4-5.3,5.5v5.8H472.5z"/>
<path class="st1" d="M499,275.3c-1.2,2.2-3.7,3.9-7.6,3.9c-3.8,0-5.9-1.5-5.9-4.2v0c-0.1-1.6,0.8-3.1,2.2-3.8c1.4-0.7,2.8-1,6.8-1.4
	c3.1-0.2,4.1-0.6,4.1-1.7s-0.9-2-3.9-2c-3.4,0-4.6,0.9-4.7,2.8H486c0.4-3.8,3.4-5.8,8.6-5.8c5.5,0,8.1,1.7,8.1,5.9v9.8h-3.3
	L499,275.3z M498.8,271.6v-0.4c-0.6,0.6-1.7,0.8-3.6,1c-2.5,0.2-3.6,0.4-4.4,0.8c-0.6,0.2-1,0.8-0.9,1.5c0,1.1,0.8,1.7,2.8,1.7
	C496.4,276.2,498.8,273.8,498.8,271.6z"/>
<path class="st1" d="M506.8,278.7v-20.2h4.1v20.2H506.8z"/>
<path class="st1" d="M514.5,258.9c0-1.8,1-2.5,2.7-2.5s2.6,0.7,2.6,2.5c0,1.8-0.9,2.6-2.6,2.6C515.3,261.4,514.5,260.8,514.5,258.9z
	 M515,278.7v-15.2h4.2v15.2L515,278.7z"/>
<path class="st1" d="M535.9,275.3c-1.2,2.2-3.7,3.9-7.6,3.9c-3.9,0-5.9-1.5-5.9-4.2v0c-0.1-1.6,0.8-3.1,2.2-3.8
	c1.4-0.7,2.8-1,6.8-1.4c3.1-0.2,4.1-0.6,4.1-1.7s-0.9-2-3.9-2c-3.4,0-4.6,0.9-4.7,2.8h-4.2c0.4-3.8,3.4-5.8,8.6-5.8
	c5.5,0,8.1,1.7,8.1,5.9v9.8h-3.3L535.9,275.3z M535.7,271.6v-0.4c-0.6,0.6-1.7,0.8-3.6,1c-2.5,0.2-3.6,0.4-4.4,0.8
	c-0.6,0.2-0.9,0.8-0.9,1.5c0,1.1,0.8,1.7,2.8,1.7C533.2,276.2,535.7,273.8,535.7,271.6L535.7,271.6z"/>
</svg>
